# xmcd CD database file
#
# Track frame offsets:
#	150
#	26589
#	48154
#	70175
#	121621
#	141157
#	176056
#	200220
#	220551
#	252605
#	273945
#	297867
#
# Disc length: 4255 seconds
#
# Revision: 0
# Processed by: cddbd v1.5.2PL0 Copyright (c) Steve Scherf et al.
# Submitted via: CDex 1.51
#
DISCID=b6109d0c
DTITLE=Bob Downes - 5 Trios
DYEAR=2010
DGENRE=Jazz
TTITLE0=Living it up in Rio
TTITLE1=Desert Waltz
TTITLE2=Circus
TTITLE3=Moonstruck
TTITLE4=Bamboo Blaze
TTITLE5=Spooks
TTITLE6=Mirage
TTITLE7=Ghosts in Space
TTITLE8=Ready Steady Blow
TTITLE9=Soul Cry
TTITLE10=Lonely Street Blues
TTITLE11=Maya
EXTD=YEAR: 2010
EXTT0=
EXTT1=
EXTT2=
EXTT3=
EXTT4=
EXTT5=
EXTT6=
EXTT7=
EXTT8=
EXTT9=
EXTT10=
EXTT11=
PLAYORDER=
